<?xml version="1.0" encoding="UTF-8" standalone="no"?>
<svg
   height="16"
   viewBox="0 0 16 16"
   width="16"
   version="1.1"
   id="svg10154"
   sodipodi:docname="autotile.svg"
   xml:space="preserve"
   inkscape:version="1.2.1 (9c6d41e410, 2022-07-14)"
   xmlns:inkscape="http://www.inkscape.org/namespaces/inkscape"
   xmlns:sodipodi="http://sodipodi.sourceforge.net/DTD/sodipodi-0.dtd"
   xmlns="http://www.w3.org/2000/svg"
   xmlns:svg="http://www.w3.org/2000/svg"><defs
     id="defs10158" /><sodipodi:namedview
     id="namedview10156"
     pagecolor="#ffffff"
     bordercolor="#000000"
     borderopacity="0.25"
     inkscape:showpageshadow="2"
     inkscape:pageopacity="0.0"
     inkscape:pagecheckerboard="0"
     inkscape:deskcolor="#d1d1d1"
     showgrid="true"
     inkscape:zoom="32.09375"
     inkscape:cx="6.9795521"
     inkscape:cy="9.6124635"
     inkscape:window-width="2400"
     inkscape:window-height="1271"
     inkscape:window-x="3191"
     inkscape:window-y="-9"
     inkscape:window-maximized="1"
     inkscape:current-layer="svg10154"><inkscape:grid
       type="xygrid"
       id="grid10644" /></sodipodi:namedview><path
     id="path10152"
     style="fill:#e0e0e0;fill-opacity:1;stroke-width:0;stroke-dasharray:none"
     d="M 9.2857143,5 8.8825335,6.6127232 C 8.7136552,6.6669024 8.549038,6.7335854 8.390067,6.812221 L 6.9698661,5.9598214 5.9598214,6.9698661 6.8136161,8.3942522 C 6.7336805,8.5522019 6.6655973,8.7158789 6.609933,8.8839286 L 5,9.2857143 V 10 10.714286 l 1.609933,0.401785 c 0.055664,0.16805 0.1237475,0.331727 0.2036831,0.489677 l -0.8537947,1.424386 1.0100447,1.010045 1.4202009,-0.8524 c 0.158971,0.07864 0.3235882,0.145319 0.4924665,0.199498 L 9.2857143,15 h 1.4285717 l 0.401785,-1.609933 c 0.16805,-0.05566 0.331727,-0.123748 0.489677,-0.203683 l 1.424386,0.853795 1.010045,-1.010045 -0.8524,-1.421596 c 0.07857,-0.158522 0.145255,-0.322665 0.199498,-0.491072 L 15,10.714286 V 10 9.2857143 L 13.387277,8.8825335 C 13.333037,8.7141266 13.266351,8.5499832 13.187779,8.3914621 l 0.8524,-1.421596 -1.010045,-1.0100447 -1.424386,0.8537947 C 11.447798,6.7336805 11.284121,6.6655973 11.116071,6.609933 L 10.714286,5 Z M 10,8.5714286 C 10.788998,8.5714354 11.428571,9.211023 11.428571,10 11.428571,10.788977 10.788998,11.428565 10,11.428571 9.211023,11.428571 8.5714354,10.788998 8.5714286,10 8.5714354,9.2110016 9.211023,8.5714286 10,8.5714286 Z M 1,1 V 3 H 3 V 1 Z M 4,1 V 3 H 6 V 1 Z M 7,1 V 3 H 9 V 1 Z m 3,0 v 2 h 2 V 1 Z m 3,0 v 2 h 2 V 1 Z M 1,4 V 6 H 3 V 4 Z M 4,4 V 6 H 5.5507812 A 6,6 0 0 1 6,5.5507812 V 4 Z M 7,4 V 4.8222656 A 6,6 0 0 1 9,4.0878906 V 4 Z m 3,0 a 6,6 0 0 1 2,0.3457031 V 4 Z m 3,0 V 4.8066406 A 6,6 0 0 1 14.46875,6 H 15 V 4 Z M 1,7 V 9 H 3 V 7 Z m 3,0 v 2 h 0.087891 a 6,6 0 0 1 0.734375,-2 z m -3,3 v 2 h 2 v -2 z m 3,0 v 2 H 4.3535156 A 6,6 0 0 1 4,10 Z m -3,3 v 2 h 2 v -2 z m 3,0 v 2 H 6 V 14.449219 A 6,6 0 0 1 4.8222656,13 Z m 11,0.289062 A 6,6 0 0 1 13.289062,15 H 15 Z" /></svg>
