<?xml version="1.0" encoding="UTF-8" standalone="no"?>
<svg
   height="16"
   viewBox="0 0 16 16"
   width="16"
   version="1.1"
   id="svg4"
   sodipodi:docname="flip_only_cells.svg"
   inkscape:version="1.2.2 (732a01da63, 2022-12-09)"
   xmlns:inkscape="http://www.inkscape.org/namespaces/inkscape"
   xmlns:sodipodi="http://sodipodi.sourceforge.net/DTD/sodipodi-0.dtd"
   xmlns="http://www.w3.org/2000/svg"
   xmlns:svg="http://www.w3.org/2000/svg">
  <defs
     id="defs8" />
  <sodipodi:namedview
     id="namedview6"
     pagecolor="#ffffff"
     bordercolor="#000000"
     borderopacity="0.25"
     inkscape:showpageshadow="2"
     inkscape:pageopacity="0.0"
     inkscape:pagecheckerboard="0"
     inkscape:deskcolor="#d1d1d1"
     showgrid="true"
     inkscape:zoom="22.627417"
     inkscape:cx="7.4909125"
     inkscape:cy="11.247417"
     inkscape:window-width="2400"
     inkscape:window-height="1271"
     inkscape:window-x="3191"
     inkscape:window-y="-9"
     inkscape:window-maximized="1"
     inkscape:current-layer="svg4">
    <inkscape:grid
       type="xygrid"
       id="grid2414"
       spacingy="1"
       empspacing="4" />
  </sodipodi:namedview>
  <g
     aria-label="1"
     id="text414"
     style="font-weight:bold;font-size:6.93333px;font-family:Tahoma;-inkscape-font-specification:'Tahoma Bold';fill:#e0e0e0;fill-opacity:0.996078;fill-rule:evenodd;stroke:#e0e0e0;stroke-width:0;stroke-linejoin:round;stroke-opacity:0.996078"
     transform="matrix(2.0000003,0,0,-2.0000002,-14.000003,16)">
    <path
       d="M 12.665624,6.5272121 H 9.334376 V 5.6470042 h 1.06302 V 2.9826826 H 9.334376 V 2.1600267 q 0.2335937,0 0.4638019,-0.030469 0.2302081,-0.030469 0.3690101,-0.098177 0.1625,-0.08125 0.250521,-0.2166665 0.09141,-0.138802 0.104948,-0.341927 h 1.103645 V 5.647004 h 1.039322 z"
       id="path3013"
       style="stroke-width:0" />
  </g>
  <path
     id="rect456"
     style="fill:#e0e0e0;fill-opacity:0.996078;fill-rule:evenodd;stroke:#e0e0e0;stroke-width:0;stroke-linejoin:round;stroke-dasharray:none;stroke-opacity:0.996078"
     d="M 1,2 C 1,1.446001 1.4460006,1 2,1 h 12 c 0.553999,0 1,0.446001 1,1 v 12 c 0,0.553999 -0.446001,1 -1,1 H 2 C 1.4460006,15 1,14.553999 1,14 Z M 2,2 V 14 H 14 V 2 Z" />
</svg>
