<?xml version="1.0" encoding="UTF-8" standalone="no"?>
<svg
   height="16"
   viewBox="0 0 16 16"
   width="16"
   version="1.1"
   id="svg8"
   sodipodi:docname="flip.svg"
   inkscape:version="1.2.2 (732a01da63, 2022-12-09)"
   xmlns:inkscape="http://www.inkscape.org/namespaces/inkscape"
   xmlns:sodipodi="http://sodipodi.sourceforge.net/DTD/sodipodi-0.dtd"
   xmlns="http://www.w3.org/2000/svg"
   xmlns:svg="http://www.w3.org/2000/svg">
  <defs
     id="defs12" />
  <sodipodi:namedview
     id="namedview10"
     pagecolor="#ffffff"
     bordercolor="#000000"
     borderopacity="0.25"
     inkscape:showpageshadow="2"
     inkscape:pageopacity="0.0"
     inkscape:pagecheckerboard="0"
     inkscape:deskcolor="#d1d1d1"
     showgrid="true"
     inkscape:zoom="32"
     inkscape:cx="1.046875"
     inkscape:cy="6.859375"
     inkscape:window-width="2560"
     inkscape:window-height="1361"
     inkscape:window-x="-9"
     inkscape:window-y="-9"
     inkscape:window-maximized="1"
     inkscape:current-layer="svg8">
    <inkscape:grid
       type="xygrid"
       id="grid295"
       empspacing="4" />
  </sodipodi:namedview>
  <path
     id="rect5032"
     style="fill:#e0e0e0;fill-opacity:0.996078;fill-rule:evenodd;stroke:none;stroke-width:0.1;stroke-linejoin:round;stroke-dasharray:none;stroke-opacity:0.996078"
     d="m 7,1 c 0,1.6621094 0,3.3242187 0,4.9863281 0.6666667,0 1.3333333,0 2,0 C 9,4.3242187 9,2.6621094 9,1 8.3333333,1 7.6666667,1 7,1 Z M 7,9.9863281 C 6.9983897,10.570885 7.0148554,11.14449 7,11.727129 7,12.818086 7,13.909043 7,15 c 0.6666667,0 1.3333333,0 2,0 2.715e-4,-1.671294 -4.32e-4,-3.342714 0,-5.0136719 -0.6666667,0 -1.3333333,0 -2,0 z" />
  <path
     id="path5947"
     style="fill:#e0e0e0;fill-opacity:0.996078;fill-rule:evenodd;stroke-width:0.1;stroke-linejoin:round;stroke-opacity:0.996078"
     d="M 1,1 C 1,2.71875 1,4.4375 1,6.15625 1.3001361,5.7672676 1.8354236,5.4796781 2,5.0374561 2,4.0249707 2,3.0124854 2,2 3,2 4,2 5,2 5,2.328125 5,2.65625 5,2.984375 5.3373886,2.9174882 5.8391688,3.210155 6,3.1473665 6,2.4315777 6,1.7157888 6,1 4.3333333,1 2.6666667,1 1,1 Z M 1,9.8183594 C 1,11.545573 1,13.272786 1,15 2.6666667,15 4.3333333,15 6,15 6,14.23112 6,13.462239 6,12.693359 5.6397043,13.038353 4.805822,12.770812 5,13.439484 4.9398206,13.61894 5.1470548,14.065811 4.8416081,14 3.8944054,14 2.9472027,14 2,14 2,12.938151 2,11.876302 2,10.814453 1.6684413,10.480623 1.3342889,10.149459 1,9.8183594 Z" />
  <path
     id="rect5036"
     style="fill:#e0e0e0;fill-opacity:0.996078;fill-rule:evenodd;stroke:none;stroke-width:0.1;stroke-linejoin:round;stroke-dasharray:none;stroke-opacity:0.996078"
     d="m 10,1 c 0,0.7565104 0,1.5130208 0,2.2695312 0.367683,-0.3308958 1.194514,-0.038651 1,-0.7109684 C 11.060321,2.3798987 10.852686,1.9332788 11.158392,2 12.105595,2 13.052797,2 14,2 c 0,1.0546875 0,2.109375 0,3.1640625 0.280013,0.1608172 0.907514,1.1383837 1,0.8377018 C 15,4.3345095 15,2.6672548 15,1 13.333333,1 11.666667,1 10,1 Z m 5,8.8183594 c -0.295332,0.3905966 -0.83634,0.6691116 -1,1.1090286 0,1.024204 0,2.048408 0,3.072612 -1,0 -2,0 -3,0 0,-0.328125 0,-0.65625 0,-0.984375 -0.395492,0.172209 -1.1490565,-0.644276 -1,0.06341 0,0.640321 0,1.280641 0,1.920962 1.666667,0 3.333333,0 5,0 0,-1.727214 0,-3.454427 0,-5.1816406 z" />
  <g
     id="path5096"
     style="fill-rule:nonzero" />
  <path
     id="path6531"
     style="color:#000000;fill:#e0e0e0;fill-opacity:0.996078;fill-rule:evenodd;stroke-linecap:round;stroke-linejoin:round;-inkscape-stroke:none"
     d="M 5.0742188,3.9980469 C 4.2800754,3.995637 3.8836564,4.8018135 3.3383026,5.2481708 2.6081724,5.9953482 1.8386529,6.7083828 1.1360218,7.4797376 0.70762183,8.2082624 1.4044815,8.890832 1.9185157,9.3310829 2.7822762,10.181107 3.6156786,11.066405 4.5054734,11.887297 5.3079068,12.403023 6.463748,11.255791 5.8350747,10.482922 5.425148,9.9319791 4.8816576,9.5003748 4.4140625,9 6.8040363,9 9.1940102,9 11.583984,9 11.073961,9.5995978 10.320672,10.057069 10.0062,10.786532 9.8116979,11.768436 11.188608,12.473505 11.798049,11.613079 12.807268,10.585312 13.855262,9.593746 14.84375,8.5449219 15.302836,7.8498681 14.657913,7.1352665 14.13103,6.7211731 13.27778,5.871103 12.442106,5.0030477 11.566406,4.1757812 10.71892,3.5147354 9.6102276,4.6695994 10.144891,5.5281787 10.512013,6.0302573 11.335431,6.6168965 11.506742,7 9.1431666,7 6.7795911,7 4.4160156,7 4.9221665,6.4013995 5.6706144,5.9543502 5.9805097,5.2242876 6.0992034,4.662886 5.675517,4.0056023 5.0742188,3.9980469 Z" />
</svg>
