<?xml version="1.0" encoding="UTF-8" standalone="no"?>
<svg
   height="16"
   viewBox="0 0 16 16"
   width="16"
   version="1.1"
   id="svg4"
   sodipodi:docname="magic_wand.svg"
   inkscape:version="1.2.1 (9c6d41e410, 2022-07-14)"
   xmlns:inkscape="http://www.inkscape.org/namespaces/inkscape"
   xmlns:sodipodi="http://sodipodi.sourceforge.net/DTD/sodipodi-0.dtd"
   xmlns="http://www.w3.org/2000/svg"
   xmlns:svg="http://www.w3.org/2000/svg">
  <defs
     id="defs8" />
  <sodipodi:namedview
     id="namedview6"
     pagecolor="#ffffff"
     bordercolor="#000000"
     borderopacity="0.25"
     inkscape:showpageshadow="2"
     inkscape:pageopacity="0.0"
     inkscape:pagecheckerboard="0"
     inkscape:deskcolor="#d1d1d1"
     showgrid="true"
     inkscape:zoom="22.693708"
     inkscape:cx="9.6722844"
     inkscape:cy="10.201065"
     inkscape:window-width="2560"
     inkscape:window-height="1361"
     inkscape:window-x="-9"
     inkscape:window-y="-9"
     inkscape:window-maximized="1"
     inkscape:current-layer="svg4">
    <inkscape:grid
       type="xygrid"
       id="grid2414" />
  </sodipodi:namedview>
  <path
     id="path7792"
     style="fill:#a5efac;fill-opacity:1"
     inkscape:transform-center-x="4.9497475"
     d="M 3.464466,6.2928932 H 0.636039 v 1.4142136 h 2.828427 z m 2.8284272,4.2426408 v 2.828427 H 7.7071068 V 10.535534 Z M 10.535534,7.7071068 h 2.828427 V 6.2928932 H 10.535534 Z M 7.7071068,3.4644661 V 0.636039 H 6.2928932 V 3.4644661 Z M 7,5 5,7 l 8,8 2,-2 z M 7,6 9,8 8,9 6,7 Z M 5,4 3,2 2,3 4,5 Z m -1,5 -2,2 1,1 2,-2 z m 7,-7 -2,2 1,1 2,-2 z" />
</svg>
