<?xml version="1.0" encoding="UTF-8" standalone="no"?>
<svg
   height="16"
   viewBox="0 0 16 16"
   width="16"
   version="1.1"
   id="svg5179"
   sodipodi:docname="pattern.svg"
   inkscape:version="1.2.1 (9c6d41e410, 2022-07-14)"
   xmlns:inkscape="http://www.inkscape.org/namespaces/inkscape"
   xmlns:sodipodi="http://sodipodi.sourceforge.net/DTD/sodipodi-0.dtd"
   xmlns="http://www.w3.org/2000/svg"
   xmlns:svg="http://www.w3.org/2000/svg">
  <defs
     id="defs5183" />
  <sodipodi:namedview
     id="namedview5181"
     pagecolor="#ffffff"
     bordercolor="#000000"
     borderopacity="0.25"
     inkscape:showpageshadow="2"
     inkscape:pageopacity="0.0"
     inkscape:pagecheckerboard="0"
     inkscape:deskcolor="#d1d1d1"
     showgrid="true"
     inkscape:zoom="22.693708"
     inkscape:cx="4.4505728"
     inkscape:cy="6.7199242"
     inkscape:window-width="2400"
     inkscape:window-height="1271"
     inkscape:window-x="3191"
     inkscape:window-y="-9"
     inkscape:window-maximized="1"
     inkscape:current-layer="svg5179">
    <inkscape:grid
       type="xygrid"
       id="grid6028" />
  </sodipodi:namedview>
  <path
     d="m 13,13 v 2 h 2 v -2 z"
     id="path6078"
     style="fill:#e0e0e0;fill-opacity:0.99607843" />
  <path
     d="m 1,13 v 2 h 2 v -2 z"
     id="path6070"
     style="fill:#e0e0e0;fill-opacity:0.99607843" />
  <path
     d="m 10,10 v 2 h 2 v -2 z"
     id="path6066"
     style="fill:#e0e0e0;fill-opacity:0.99607843" />
  <path
     d="m 1,10 v 2 h 2 v -2 z"
     id="path6060"
     style="fill:#e0e0e0;fill-opacity:0.99607843" />
  <path
     d="m 10,7 v 2 h 2 V 7 Z"
     id="path6056"
     style="fill:#e0e0e0;fill-opacity:0.99607843" />
  <path
     d="M 7,7 V 9 H 9 V 7 Z"
     id="path6054"
     style="fill:#e0e0e0;fill-opacity:0.99607843" />
  <path
     d="M 4,7 V 9 H 6 V 7 Z"
     id="path6052"
     style="fill:#e0e0e0;fill-opacity:0.99607843" />
  <path
     d="M 1,7 V 9 H 3 V 7 Z"
     id="path6050"
     style="fill:#e0e0e0;fill-opacity:0.99607843" />
  <path
     d="m 13,4 v 2 h 2 V 4 Z"
     id="path6048"
     style="fill:#e0e0e0;fill-opacity:0.99607843" />
  <path
     d="m 10,4 v 2 h 2 V 4 Z"
     id="path6046"
     style="fill:#e0e0e0;fill-opacity:0.99607843" />
  <path
     d="M 7,4 V 6 H 9 V 4 Z"
     id="path6044"
     style="fill:#e0e0e0;fill-opacity:0.99607843" />
  <path
     d="M 1,4 V 6 H 3 V 4 Z"
     id="path6040"
     style="fill:#e0e0e0;fill-opacity:0.99607843" />
  <path
     d="m 10,1 v 2 h 2 V 1 Z"
     id="path6036"
     style="fill:#e0e0e0;fill-opacity:0.99607843" />
  <path
     d="M 7,1 V 3 H 9 V 1 Z"
     id="path6034"
     style="fill:#e0e0e0;fill-opacity:0.99607843" />
  <path
     d="M 4,1 V 3 H 6 V 1 Z"
     id="path6032"
     style="fill:#e0e0e0;fill-opacity:0.99607843" />
  <path
     d="M 1,1 V 3 H 3 V 1 Z"
     id="path5177"
     style="fill:#e0e0e0;fill-opacity:0.99607843" />
</svg>
