<?xml version="1.0" encoding="UTF-8" standalone="no"?>
<svg
   height="16"
   viewBox="0 0 16 16"
   width="16"
   version="1.1"
   id="svg4"
   sodipodi:docname="rectangle_selection.svg"
   inkscape:version="1.2.1 (9c6d41e410, 2022-07-14)"
   xmlns:inkscape="http://www.inkscape.org/namespaces/inkscape"
   xmlns:sodipodi="http://sodipodi.sourceforge.net/DTD/sodipodi-0.dtd"
   xmlns="http://www.w3.org/2000/svg"
   xmlns:svg="http://www.w3.org/2000/svg">
  <defs
     id="defs8" />
  <sodipodi:namedview
     id="namedview6"
     pagecolor="#ffffff"
     bordercolor="#000000"
     borderopacity="0.25"
     inkscape:showpageshadow="2"
     inkscape:pageopacity="0.0"
     inkscape:pagecheckerboard="0"
     inkscape:deskcolor="#d1d1d1"
     showgrid="true"
     inkscape:zoom="22.693708"
     inkscape:cx="9.6722844"
     inkscape:cy="10.201065"
     inkscape:window-width="2560"
     inkscape:window-height="1361"
     inkscape:window-x="-9"
     inkscape:window-y="-9"
     inkscape:window-maximized="1"
     inkscape:current-layer="svg4">
    <inkscape:grid
       type="xygrid"
       id="grid2414" />
  </sodipodi:namedview>
  <path
     id="path1644-1"
     d="M 1,1 V 3 H 3 V 1 Z M 5,1 V 3 H 7 V 1 Z M 1,13 v 2 h 2 v -2 z m 12,0 v 2 h 2 V 13 Z M 13,1 v 2 h 2 V 1 Z M 9,1 v 2 h 2 V 1 Z M 1,5 V 7 H 3 V 5 Z m 12,0 v 2 h 2 V 5 Z M 1,9 v 2 H 3 V 9 Z m 12,0 v 2 h 2 V 9 Z m -8,4 v 2 h 2 v -2 z m 4,0 v 2 h 2 v -2 z"
     style="fill:#a5efac;fill-opacity:1" />
</svg>
