<?xml version="1.0" encoding="UTF-8" standalone="no"?>
<svg
   height="16"
   viewBox="0 0 16 16"
   width="16"
   version="1.1"
   id="svg8"
   sodipodi:docname="rotate.svg"
   inkscape:version="1.2.2 (732a01da63, 2022-12-09)"
   xmlns:inkscape="http://www.inkscape.org/namespaces/inkscape"
   xmlns:sodipodi="http://sodipodi.sourceforge.net/DTD/sodipodi-0.dtd"
   xmlns="http://www.w3.org/2000/svg"
   xmlns:svg="http://www.w3.org/2000/svg">
  <defs
     id="defs12" />
  <sodipodi:namedview
     id="namedview10"
     pagecolor="#ffffff"
     bordercolor="#000000"
     borderopacity="0.25"
     inkscape:showpageshadow="2"
     inkscape:pageopacity="0.0"
     inkscape:pagecheckerboard="0"
     inkscape:deskcolor="#d1d1d1"
     showgrid="true"
     inkscape:zoom="32"
     inkscape:cx="10.484375"
     inkscape:cy="7.0625"
     inkscape:window-width="2400"
     inkscape:window-height="1271"
     inkscape:window-x="3191"
     inkscape:window-y="-9"
     inkscape:window-maximized="1"
     inkscape:current-layer="svg8">
    <inkscape:grid
       type="xygrid"
       id="grid295"
       empspacing="4" />
  </sodipodi:namedview>
  <path
     style="fill:#e0e0e0;fill-opacity:0.996078;fill-rule:evenodd;stroke:none;stroke-width:0.1;stroke-linejoin:round;stroke-dasharray:none;stroke-opacity:0.996078"
     d="m 10.648348,9.3420508 4.627801,3.9475882 c 0,0 -3.259513,1.54129 -6.8610974,1.710361 1.5452213,-2.571438 2.2332964,-5.6579492 2.2332964,-5.6579492 z"
     id="path1849"
     sodipodi:nodetypes="cccc"
     inkscape:transform-center-x="1.1543997"
     inkscape:transform-center-y="0.1710254" />
  <path
     id="path4875"
     style="fill:#e0e0e0;fill-opacity:0.996078;fill-rule:evenodd;stroke:none;stroke-width:0.1;stroke-linejoin:round;stroke-dasharray:none;stroke-opacity:0.996078"
     d="M 8 1 A 7 7 0 0 0 1 8 A 7 7 0 0 0 2.5761719 12.40625 L 5.6621094 12.40625 A 5 5 0 0 1 3 8 A 5 5 0 0 1 8 3 A 5 5 0 0 1 13 8 A 5 5 0 0 1 10.337891 12.40625 L 13.423828 12.40625 A 7 7 0 0 0 15 8 A 7 7 0 0 0 8 1 z " />
  <path
     style="fill:#e0e0e0;fill-opacity:0.996078;fill-rule:evenodd;stroke:none;stroke-width:0.1;stroke-linejoin:round;stroke-dasharray:none;stroke-opacity:0.996078"
     d="M 5.3516517,9.3420508 0.72385062,13.289639 c 0,0 3.25951308,1.54129 6.86109778,1.710361 C 6.0397271,12.428562 5.3516517,9.3420508 5.3516517,9.3420508 Z"
     id="path5015"
     sodipodi:nodetypes="cccc"
     inkscape:transform-center-x="-1.1543995"
     inkscape:transform-center-y="0.1710254" />
  <circle
     style="fill:#e0e0e0;fill-opacity:0.996078;stroke:none;stroke-width:2;stroke-linecap:round;stroke-linejoin:round;stroke-opacity:0.996078"
     id="path16610"
     cx="8"
     cy="8"
     r="2" />
</svg>
