<?xml version="1.0" encoding="UTF-8" standalone="no"?>
<svg
   height="16"
   viewBox="0 0 16 16"
   width="16"
   version="1.1"
   id="svg19496"
   sodipodi:docname="terrain_autotiling.svg"
   inkscape:version="1.2.1 (9c6d41e410, 2022-07-14)"
   xmlns:inkscape="http://www.inkscape.org/namespaces/inkscape"
   xmlns:sodipodi="http://sodipodi.sourceforge.net/DTD/sodipodi-0.dtd"
   xmlns="http://www.w3.org/2000/svg"
   xmlns:svg="http://www.w3.org/2000/svg">
  <defs
     id="defs19500" />
  <sodipodi:namedview
     id="namedview19498"
     pagecolor="#ffffff"
     bordercolor="#000000"
     borderopacity="0.25"
     inkscape:showpageshadow="2"
     inkscape:pageopacity="0.0"
     inkscape:pagecheckerboard="0"
     inkscape:deskcolor="#d1d1d1"
     showgrid="true"
     inkscape:zoom="32.09375"
     inkscape:cx="9.113924"
     inkscape:cy="12.323272"
     inkscape:window-width="2400"
     inkscape:window-height="1271"
     inkscape:window-x="3191"
     inkscape:window-y="-9"
     inkscape:window-maximized="1"
     inkscape:current-layer="svg19496">
    <inkscape:grid
       type="xygrid"
       id="grid19619" />
  </sodipodi:namedview>
  <path
     id="rect20094"
     style="fill:#e0e0e0;fill-opacity:0.996078;fill-rule:evenodd;stroke-width:0;stroke-opacity:0.996078"
     d="M 1 1 L 1 3.7890625 C 1.0858106 3.4683511 1.1989549 3.1518172 1.3398438 2.84375 C 1.6605903 2.1424063 2.1959798 1.4721589 2.8945312 1 L 1 1 z M 7.6796875 1 C 7.8757822 1.1110632 8.0392934 1.2238998 8.1679688 1.3261719 C 8.655379 1.7135688 8.4565563 1.7202784 9.0644531 1.7519531 C 9.401115 1.7694951 9.7065619 1.7814286 10 1.7871094 L 10 1 L 7.6796875 1 z M 11 1 L 11 1.7597656 C 11.750844 1.6888164 12.435904 1.4825704 13.236328 1 L 11 1 z M 5 2.8359375 C 4.2971044 2.8362205 3.9211282 3.2096749 3.6132812 3.8828125 C 3.4553219 4.228206 3.3871429 4.6366575 3.375 5 L 5 5 L 5 2.8359375 z M 6 2.9355469 L 6 5 L 10 5 L 10 4.2734375 C 9.6425413 4.274394 9.2872236 4.2663711 8.9355469 4.2480469 C 7.7578117 4.1866803 6.9469771 3.5484268 6.6132812 3.2832031 C 6.4099748 3.1216138 6.3031589 3.0102215 6 2.9355469 z M 14.527344 3.1113281 C 13.316079 3.8360511 12.142038 4.1360915 11 4.2363281 L 11 5 L 15 5 L 15 3.4960938 C 14.875731 3.3664077 14.758074 3.2560634 14.666016 3.1914062 C 14.563794 3.1196083 14.534444 3.1146681 14.527344 3.1113281 z M 3.5625 6 C 4.2727203 7.3766849 4.1420496 7.0748689 4.6367188 8.2695312 C 4.7780839 8.6109385 4.9178616 8.9529588 5 9.3144531 L 5 6 L 3.5625 6 z M 6 6 L 6 10 L 6.4570312 10 C 6.3869907 9.1218239 6.469064 8.2689032 6.8828125 7.4414062 C 7.1914664 6.8240986 7.7334766 6.4740938 8.2402344 6.2695312 C 8.5554077 6.1423055 8.8790567 6.05989 9.2109375 6 L 6 6 z M 14.666016 6 C 14.774431 6.0070672 14.894964 6.0148354 15 6.0214844 L 15 6 L 14.666016 6 z M 1 6.3398438 L 1 10 L 2.5449219 10 C 2.5589039 9.9612515 2.5726724 9.9206067 2.5742188 9.9101562 C 2.5827046 9.8527811 2.5856008 9.8511491 2.3261719 9.2246094 C 1.803656 7.9626954 2.098562 8.6216612 1.2675781 7.0058594 C 1.1562729 6.7894326 1.0687368 6.566595 1 6.3398438 z M 11.533203 8.3476562 C 11.347042 8.3455095 11.174635 8.3505842 11 8.3535156 L 11 10 L 15 10 L 15 8.5273438 C 14.428167 8.492018 13.82905 8.4495457 13.226562 8.4140625 C 12.649353 8.380068 12.070543 8.3538527 11.533203 8.3476562 z M 10 8.4101562 C 9.6282327 8.4547781 9.3303379 8.5255008 9.1757812 8.5878906 C 9.1109217 8.6140724 9.0995089 8.624156 9.0878906 8.6308594 C 9.0000421 8.8821622 8.9851064 9.3638484 9.0390625 10 L 10 10 L 10 8.4101562 z M 9.0878906 8.6308594 C 9.0970147 8.6047587 9.1065922 8.5797843 9.1171875 8.5585938 C 9.0813416 8.6302855 9.0696313 8.6413945 9.0878906 8.6308594 z M 1 11 L 1 13.095703 C 1.1587599 12.748941 1.3215625 12.432269 1.4667969 12.167969 C 1.6930149 11.756292 1.9245735 11.357886 1.8828125 11.441406 C 1.9673499 11.272331 2.0305579 11.139525 2.0976562 11 L 1 11 z M 4.859375 11 C 4.6948969 11.448161 4.4459547 11.901058 4.1171875 12.558594 C 3.9690216 12.854924 3.8521716 13.018106 3.6582031 13.371094 C 3.4642346 13.724081 3.242356 14.16224 3.0761719 14.595703 C 3.0234958 14.7331 2.9801906 14.867809 2.9414062 15 L 5 15 L 5 11 L 4.859375 11 z M 6 11 L 6 15 L 7.421875 15 C 7.2652311 14.159083 7.0759159 13.321722 6.9023438 12.511719 C 6.7927665 12.000358 6.6817834 11.496456 6.59375 11 L 6 11 z M 9.1640625 11 C 9.2141342 11.311581 9.2727079 11.638522 9.3476562 11.988281 C 9.5430839 12.900277 9.7845 13.917683 9.96875 15 L 10 15 L 10 11 L 9.1640625 11 z M 11 11 L 11 15 L 15 15 L 15 11 L 11 11 z " />
</svg>
