<?xml version="1.0" encoding="UTF-8" standalone="no"?>
<svg
   height="16"
   viewBox="0 0 16 16"
   width="16"
   version="1.1"
   id="svg4"
   sodipodi:docname="tile.svg"
   inkscape:version="1.2.1 (9c6d41e410, 2022-07-14)"
   xmlns:inkscape="http://www.inkscape.org/namespaces/inkscape"
   xmlns:sodipodi="http://sodipodi.sourceforge.net/DTD/sodipodi-0.dtd"
   xmlns="http://www.w3.org/2000/svg"
   xmlns:svg="http://www.w3.org/2000/svg">
  <defs
     id="defs8" />
  <sodipodi:namedview
     id="namedview6"
     pagecolor="#ffffff"
     bordercolor="#000000"
     borderopacity="0.25"
     inkscape:showpageshadow="2"
     inkscape:pageopacity="0.0"
     inkscape:pagecheckerboard="0"
     inkscape:deskcolor="#d1d1d1"
     showgrid="true"
     inkscape:zoom="11.346854"
     inkscape:cx="28.994821"
     inkscape:cy="18.375137"
     inkscape:window-width="2400"
     inkscape:window-height="1271"
     inkscape:window-x="3191"
     inkscape:window-y="-9"
     inkscape:window-maximized="1"
     inkscape:current-layer="svg4">
    <inkscape:grid
       type="xygrid"
       id="grid241" />
  </sodipodi:namedview>
  <path
     id="rect4043"
     style="fill:#e0e0e0;fill-opacity:0.996078;fill-rule:evenodd;stroke:#e0e0e0;stroke-width:0.496139;stroke-dasharray:none;stroke-opacity:0.996078"
     d="M 7.8574219 1 L 1 6.25 L 1 7.3261719 L 2.2304688 6.3847656 L 4.3398438 8 L 2.2304688 9.6152344 L 1 8.6738281 L 1 9.75 L 7.8574219 15 L 15 9.53125 L 15 8.4550781 L 13.484375 9.6152344 L 11.373047 8 L 13.484375 6.3847656 L 15 7.5449219 L 15 6.46875 L 7.8574219 1 z M 7.8574219 2.0761719 L 9.9667969 3.6914062 L 7.8574219 5.3085938 L 5.7480469 3.6914062 L 7.8574219 2.0761719 z M 5.0449219 4.2304688 L 7.1542969 5.8457031 L 5.0449219 7.4609375 L 2.9335938 5.8457031 L 5.0449219 4.2304688 z M 10.669922 4.2304688 L 12.779297 5.8457031 L 10.669922 7.4609375 L 8.5605469 5.8457031 L 10.669922 4.2304688 z M 7.8574219 6.3847656 L 9.9667969 8 L 7.8574219 9.6152344 L 5.7480469 8 L 7.8574219 6.3847656 z M 5.0449219 8.5390625 L 7.1542969 10.154297 L 5.0449219 11.769531 L 2.9335938 10.154297 L 5.0449219 8.5390625 z M 10.669922 8.5390625 L 12.779297 10.154297 L 10.669922 11.769531 L 8.5605469 10.154297 L 10.669922 8.5390625 z M 7.8574219 10.691406 L 9.9667969 12.308594 L 7.8574219 13.923828 L 5.7480469 12.308594 L 7.8574219 10.691406 z " />
</svg>
